<?xml version="1.0" encoding="utf-8"?>
<!-- Generator: Adobe Illustrator 24.0.2, SVG Export Plug-In . SVG Version: 6.00 Build 0)  -->
<svg version="1.1" id="Capa_1" xmlns="http://www.w3.org/2000/svg" xmlns:xlink="http://www.w3.org/1999/xlink" x="0px" y="0px"
	 viewBox="0 0 841.9 595.3" style="enable-background:new 0 0 841.9 595.3;" xml:space="preserve">
<style type="text/css">
	.st0{fill:#4793FF;}
	.st1{fill:#424FDD;}
	.st2{fill:#FDBF2D;}
	.st3{fill:#FD9827;}
	.st4{fill:#FFE05F;}
	.st5{fill:#F9CB0D;}
	.st6{fill:#FFFFFF;}
	.st7{fill:#DAEFEC;}
</style>
<g>
	<g id="XMLID_35_">
		<g>
			<g id="XMLID_1143_">
				<g id="XMLID_1144_">
					<g id="XMLID_1145_">
						<g id="XMLID_1146_">
							<g id="XMLID_1163_">
								<g id="XMLID_1174_">
									<g id="XMLID_1177_">
										<g id="XMLID_1178_">
											<g id="XMLID_1179_">
												<g id="XMLID_1180_">
													<g id="XMLID_1181_">
														<g id="XMLID_1182_">
															<g id="XMLID_1183_">
																<g id="XMLID_1937_">
																	<circle class="st0" cx="424.2" cy="297.6" r="245.5"/>
																</g>
															</g>
														</g>
													</g>
												</g>
											</g>
										</g>
									</g>
								</g>
							</g>
						</g>
					</g>
				</g>
			</g>
		</g>
	</g>
	<path class="st1" d="M669.7,297.6c0-19.7-2.3-38.8-6.7-57.1l-73.8-73.8l-10,4.2l-35.5-34.4c0,0-13.4,22-28.6,12.9l-23.8-23.3
		l-1.4,33.9L245.1,401.6l138.1,138.1c13.3,2.2,27,3.4,41,3.4C559.8,543.2,669.7,433.3,669.7,297.6L669.7,297.6z"/>
	<g>
		<g>
			<path class="st2" d="M619.4,271.2l10.4-6.6l-11.1-7.1c-12-7.7-15.3-23.8-7.2-35.6l7.5-10.9l-12.1-2.1
				c-14.2-2.5-23.4-16.2-20.3-30.3l2.6-12l-12.9,2.8c-13.9,3.1-27.6-6-30.2-20.1l-2.4-13l-10.1,7.1c-11.7,8.3-28,5.1-35.8-7
				l-6.6-10.4l-7.1,11.1c-7.7,12-23.8,15.3-35.6,7.2l-10.9-7.5l-2.1,12.1c-2.5,14.2-16.2,23.4-30.3,20.3l-12-2.6l2.8,12.9
				c3.1,13.9-6,27.6-20.1,30.2l-13,2.4l7.1,10.1c8.3,11.7,5.1,28-7,35.8l-10.4,6.6l11.1,7.1c12,7.7,15.3,23.8,7.2,35.6l-7.5,10.9
				l12.1,2.1c14.2,2.5,23.4,16.2,20.3,30.3l-2.6,12l12.9-2.8c13.9-3.1,27.6,6,30.2,20.1l2.4,13l10.1-7.1c11.7-8.3,28-5.1,35.8,7
				l6.6,10.4l7.1-11.1c7.7-12,23.8-15.3,35.6-7.2l10.9,7.5l2.1-12.1c2.5-14.2,16.2-23.4,30.3-20.3l12,2.6l-2.8-12.9
				c-3.1-13.9,6-27.6,20.1-30.2l13-2.4l-7.1-10.1C604.1,295.2,607.3,279,619.4,271.2L619.4,271.2z"/>
			<g>
				<g>
					<g>
						<path class="st3" d="M612.4,307l7.1,10.1l-13,2.4c-14.1,2.6-23.2,16.3-20.1,30.2l2.8,12.9l-12-2.6c-14-3.1-27.8,6.2-30.3,20.3
							l-2.1,12.1l-10.9-7.5c-11.7-8.1-27.9-4.9-35.6,7.2l-7.1,11.1V126.1l6.6,10.4c7.7,12.1,24,15.3,35.7,7l10.1-7.1l2.4,13
							c2.6,14,16.3,23.2,30.2,20.1l12.9-2.8l-2.6,12c-3.1,14,6.2,27.8,20.3,30.3l12.1,2.1l-7.5,10.9c-8.1,11.7-4.9,27.9,7.2,35.6
							l11.1,7.1l-10.4,6.6C607.3,279,604.1,295.2,612.4,307L612.4,307z"/>
					</g>
				</g>
			</g>
			<g id="XMLID_67_">
				<g>
					<g id="XMLID_1185_">
						<g id="XMLID_1186_">
							<g id="XMLID_1187_">
								<g id="XMLID_1188_">
									<g id="XMLID_1189_">
										<g id="XMLID_1190_">
											<g id="XMLID_1205_">
												<g id="XMLID_1451_">
													<g id="XMLID_1510_">
														<g id="XMLID_1511_">
															<g id="XMLID_1512_">
																<g id="XMLID_1513_">
																	<g id="XMLID_1514_">
																		<g id="XMLID_1515_">
																			<circle class="st4" cx="491.3" cy="264.6" r="97.1"/>
																		</g>
																	</g>
																</g>
															</g>
														</g>
													</g>
												</g>
											</g>
										</g>
									</g>
								</g>
							</g>
						</g>
					</g>
				</g>
			</g>
			<g id="XMLID_74_">
				<g>
					<g id="XMLID_1452_">
						<g id="XMLID_1453_">
							<g id="XMLID_1454_">
								<g id="XMLID_1455_">
									<g id="XMLID_1456_">
										<g id="XMLID_1457_">
											<g id="XMLID_1458_">
												<g id="XMLID_1459_">
													<g id="XMLID_1460_">
														<g id="XMLID_1475_">
															<g id="XMLID_1507_">
																<g id="XMLID_1508_">
																	<g id="XMLID_1509_">
																		<g>
																			<path class="st5" d="M588.4,264.6c0,53.6-43.5,97.1-97.1,97.1V167.5C544.9,167.5,588.4,211,588.4,264.6z"/>
																		</g>
																	</g>
																</g>
															</g>
														</g>
													</g>
												</g>
											</g>
										</g>
									</g>
								</g>
							</g>
						</g>
					</g>
				</g>
			</g>
		</g>
		<g>
			<path class="st6" d="M500,295.7c-2.5,0-5,0.2-7.4,0.4c0.2-2.7,0.4-5.5,0.4-8.3c0-51.5-41.8-93.3-93.3-93.3
				c-42.9,0-79,29-89.9,68.4c-3.5-0.5-7-0.7-10.6-0.7c-44.3,0-80.2,35.9-80.2,80.2s35.9,80.2,80.2,80.2H500
				c35.1,0,63.5-28.4,63.5-63.5C563.4,324.1,535,295.7,500,295.7L500,295.7z"/>
			<g>
				<path class="st7" d="M563.4,359.2c0,35.1-28.4,63.5-63.5,63.5H391.2V195c2.8-0.3,5.6-0.4,8.4-0.4c51.5,0,93.3,41.8,93.3,93.3
					c0,2.8-0.1,5.5-0.4,8.3c2.4-0.3,4.9-0.4,7.4-0.4C535,295.7,563.4,324.1,563.4,359.2L563.4,359.2z"/>
			</g>
		</g>
	</g>
</g>
</svg>
